<svg width="205" height="39" viewBox="0 0 205 39" fill="none" xmlns="http://www.w3.org/2000/svg">
<path d="M3.888 37.912L0 12.088H8.544L10.176 30.184L17.376 12.088H22.704L25.872 30.232L29.664 18.664C29.792 18.184 29.968 17.544 30.192 16.744C30.448 15.944 30.672 15.096 30.864 14.2C31.088 13.304 31.232 12.472 31.296 11.704H39.456C39.456 12.824 39.312 14.008 39.024 15.256C38.736 16.472 38.384 17.656 37.968 18.808C37.584 19.928 37.216 20.872 36.864 21.64L29.28 37.912H20.496L18.096 25.576L12.672 37.912H3.888ZM38.8969 37.912L42.9289 12.088H51.2329L47.1529 37.912H38.8969ZM60.3326 37.912C57.5806 37.912 55.5006 37.352 54.0926 36.232C52.7166 35.112 52.0286 33.672 52.0286 31.912C52.0286 31.336 52.0286 30.808 52.0286 30.328C52.0606 29.816 52.1086 29.336 52.1726 28.888L56.5886 1.288H64.8446L60.9566 26.008C60.8926 26.328 60.8126 26.872 60.7166 27.64C60.6206 28.408 60.5726 28.984 60.5726 29.368C60.5726 30.2 60.7646 30.76 61.1486 31.048C61.5646 31.336 62.1406 31.528 62.8766 31.624L64.4606 31.912L63.5486 37.912H60.3326ZM67.533 37.912L70.557 18.712H67.053L67.917 13.384L71.613 12.088L72.237 8.344C72.685 5.656 73.709 3.768 75.309 2.68C76.909 1.56 79.165 1 82.077 1C83.229 1 84.317 1.048 85.341 1.144C86.365 1.24 87.245 1.352 87.981 1.48L86.973 7.576H83.661C82.509 7.576 81.645 7.8 81.069 8.248C80.525 8.696 80.189 9.512 80.061 10.696L79.917 12.088H85.629L84.573 18.712H78.861L75.837 37.912H67.533ZM83.8763 37.912L87.9563 12.088H95.3963L95.7323 15.496C96.5963 14.472 97.5723 13.608 98.6603 12.904C99.78 12.168 101.06 11.8 102.5 11.8C102.98 11.8 103.396 11.816 103.748 11.848C104.132 11.88 104.516 11.944 104.9 12.04L103.652 20.344C102.66 20.312 101.7 20.296 100.772 20.296C99.396 20.296 98.1963 20.488 97.1723 20.872C96.1483 21.256 95.3163 21.688 94.6763 22.168L92.1803 37.912H83.8763ZM110.238 38.2C109.022 38.2 107.886 37.896 106.83 37.288C105.806 36.648 104.974 35.672 104.334 34.36C103.726 33.048 103.422 31.336 103.422 29.224C103.422 28.296 103.486 27.32 103.614 26.296C103.774 25.24 103.902 24.392 103.998 23.752C104.638 19.752 106.046 16.76 108.222 14.776C110.43 12.792 113.614 11.8 117.774 11.8C120.11 11.8 122.286 12.104 124.302 12.712C126.318 13.288 127.902 14.024 129.054 14.92L125.406 37.912H118.014L117.534 35.368C117.086 35.784 116.462 36.216 115.662 36.664C114.894 37.08 114.03 37.448 113.07 37.768C112.142 38.056 111.198 38.2 110.238 38.2ZM114.414 31.576C115.278 31.576 116.03 31.4 116.67 31.048C117.342 30.696 117.902 30.344 118.35 29.992L120.078 18.952C119.918 18.888 119.582 18.792 119.07 18.664C118.558 18.504 117.998 18.424 117.39 18.424C115.79 18.424 114.59 18.952 113.79 20.008C112.99 21.032 112.43 22.456 112.11 24.28C111.854 25.752 111.726 26.904 111.726 27.736C111.726 28.76 111.918 29.656 112.302 30.424C112.718 31.192 113.422 31.576 114.414 31.576ZM129.066 37.912L133.098 12.088H140.01L141.018 14.632C142.042 13.832 143.258 13.16 144.666 12.616C146.106 12.072 147.706 11.8 149.466 11.8C151.546 11.8 153.146 12.328 154.266 13.384C155.386 14.44 155.946 15.816 155.946 17.512C155.946 18.088 155.914 18.76 155.85 19.528C155.818 20.264 155.658 21.464 155.37 23.128L153.066 37.912H144.762L147.066 23.416C147.13 22.872 147.178 22.456 147.21 22.168C147.242 21.848 147.258 21.608 147.258 21.448C147.258 20.744 147.066 20.2 146.682 19.816C146.298 19.432 145.626 19.24 144.666 19.24C143.77 19.24 142.922 19.416 142.122 19.768C141.354 20.12 140.65 20.584 140.01 21.16L137.322 37.912H129.066ZM167.355 38.2C165.371 38.2 163.659 37.896 162.219 37.288C160.811 36.68 159.723 35.656 158.955 34.216C158.187 32.744 157.803 30.76 157.803 28.264C157.803 27.688 157.835 27 157.899 26.2C157.995 25.4 158.107 24.552 158.235 23.656C158.683 20.744 159.467 18.424 160.587 16.696C161.707 14.968 163.083 13.72 164.715 12.952C166.379 12.184 168.235 11.8 170.283 11.8C171.723 11.8 173.211 11.96 174.747 12.28C176.283 12.568 177.787 12.92 179.259 13.336L178.443 18.088H172.203C170.315 18.088 168.955 18.696 168.123 19.912C167.291 21.096 166.683 22.792 166.299 25C166.203 25.64 166.139 26.168 166.107 26.584C166.075 26.968 166.059 27.256 166.059 27.448C166.059 29.048 166.395 30.2 167.067 30.904C167.739 31.608 168.731 31.96 170.043 31.96H176.667L175.899 36.664C174.811 37.112 173.579 37.48 172.203 37.768C170.859 38.056 169.243 38.2 167.355 38.2ZM186.155 38.2C184.939 38.2 183.803 37.896 182.747 37.288C181.723 36.648 180.891 35.672 180.251 34.36C179.643 33.048 179.339 31.336 179.339 29.224C179.339 28.296 179.403 27.32 179.531 26.296C179.691 25.24 179.819 24.392 179.915 23.752C180.555 19.752 181.963 16.76 184.139 14.776C186.347 12.792 189.531 11.8 193.691 11.8C196.027 11.8 198.203 12.104 200.219 12.712C202.235 13.288 203.819 14.024 204.971 14.92L201.323 37.912H193.931L193.451 35.368C193.003 35.784 192.379 36.216 191.579 36.664C190.811 37.08 189.947 37.448 188.987 37.768C188.059 38.056 187.115 38.2 186.155 38.2ZM190.331 31.576C191.195 31.576 191.947 31.4 192.587 31.048C193.259 30.696 193.819 30.344 194.267 29.992L195.995 18.952C195.835 18.888 195.499 18.792 194.987 18.664C194.475 18.504 193.915 18.424 193.307 18.424C191.707 18.424 190.507 18.952 189.707 20.008C188.907 21.032 188.347 22.456 188.027 24.28C187.771 25.752 187.643 26.904 187.643 27.736C187.643 28.76 187.835 29.656 188.219 30.424C188.635 31.192 189.339 31.576 190.331 31.576Z" fill="white"/>
<path d="M43.208 5.11999C43.208 4.49661 43.3246 3.91221 43.5579 3.36675C43.8041 2.8213 44.1281 2.34727 44.5298 1.94467C44.9445 1.52909 45.424 1.20441 45.9683 0.970644C46.5125 0.736878 47.0957 0.619995 47.7177 0.619995C48.3398 0.619995 48.9229 0.736878 49.4672 0.970644C50.0115 1.20441 50.4845 1.52909 50.8862 1.94467C51.3009 2.34727 51.6249 2.8213 51.8581 3.36675C52.0914 3.91221 52.208 4.49661 52.208 5.11999C52.208 5.74337 52.0914 6.32779 51.8581 6.87325C51.6249 7.4187 51.3009 7.89921 50.8862 8.31479C50.4845 8.7174 50.0115 9.03558 49.4672 9.26935C48.9229 9.50311 48.3398 9.61999 47.7177 9.61999C47.0957 9.61999 46.5125 9.50311 45.9683 9.26935C45.424 9.03558 44.9445 8.7174 44.5298 8.31479C44.1281 7.89921 43.8041 7.4187 43.5579 6.87325C43.3246 6.32779 43.208 5.74337 43.208 5.11999ZM48.0482 2.27585C48.3592 2.66546 48.6054 3.10051 48.7868 3.58103C48.9683 4.06156 49.059 4.57453 49.059 5.11999C49.059 5.65246 48.9683 6.16545 48.7868 6.65896C48.6054 7.13948 48.3592 7.57455 48.0482 7.96416C48.3981 7.92518 48.7285 7.82779 49.0395 7.67194C49.3506 7.50311 49.6162 7.29532 49.8365 7.04857C50.0568 6.78883 50.2318 6.49662 50.3614 6.17195C50.491 5.83428 50.5557 5.48363 50.5557 5.11999C50.5557 4.75636 50.491 4.41221 50.3614 4.08753C50.2318 3.74987 50.0568 3.45766 49.8365 3.21091C49.6162 2.95116 49.3506 2.74338 49.0395 2.58753C48.7285 2.4187 48.3981 2.31479 48.0482 2.27585Z" fill="#C1476C"/>
</svg>
