<svg width="384" height="48" viewBox="0 0 384 48" fill="none" xmlns="http://www.w3.org/2000/svg">
<path d="M7.68 40L3.792 14.176H12.336L13.968 32.272L21.168 14.176H26.496L29.664 32.32L33.456 20.752C33.584 20.272 33.76 19.632 33.984 18.832C34.24 18.032 34.464 17.184 34.656 16.288C34.88 15.392 35.024 14.56 35.088 13.792H43.248C43.248 14.912 43.104 16.096 42.816 17.344C42.528 18.56 42.176 19.744 41.76 20.896C41.376 22.016 41.008 22.96 40.656 23.728L33.072 40H24.288L21.888 27.664L16.464 40H7.68ZM48.2569 10.672C47.9369 10.672 47.6809 10.576 47.4889 10.384C47.3289 10.192 47.2969 9.936 47.3929 9.616L48.1609 4.576C48.2889 3.84 48.7049 3.472 49.4089 3.472H55.8409C56.1929 3.472 56.4329 3.584 56.5609 3.808C56.6889 4.032 56.7209 4.288 56.6569 4.576L55.8889 9.616C55.7609 10.32 55.3769 10.672 54.7369 10.672H48.2569ZM42.6889 40L46.7209 14.176H55.0249L50.9449 40H42.6889ZM64.1246 40C61.3726 40 59.2926 39.44 57.8846 38.32C56.5086 37.2 55.8206 35.76 55.8206 34C55.8206 33.424 55.8206 32.896 55.8206 32.416C55.8526 31.904 55.9006 31.424 55.9646 30.976L60.3806 3.376H68.6366L64.7486 28.096C64.6846 28.416 64.6046 28.96 64.5086 29.728C64.4126 30.496 64.3646 31.072 64.3646 31.456C64.3646 32.288 64.5566 32.848 64.9406 33.136C65.3566 33.424 65.9326 33.616 66.6686 33.712L68.2526 34L67.3406 40H64.1246ZM79.917 40.288C77.613 40.288 75.629 40.176 73.965 39.952C72.333 39.728 70.877 39.392 69.597 38.944L70.365 34.096H81.789C83.069 34.096 83.789 33.648 83.949 32.752L84.093 31.984C84.125 31.824 84.141 31.712 84.141 31.648C84.141 31.584 84.141 31.536 84.141 31.504C84.141 30.768 83.613 30.4 82.557 30.4H79.005C76.893 30.4 75.101 29.968 73.629 29.104C72.189 28.24 71.469 26.848 71.469 24.928C71.469 24.576 71.469 24.224 71.469 23.872C71.501 23.488 71.549 23.088 71.613 22.672L71.901 20.896C72.157 19.552 72.653 18.352 73.389 17.296C74.157 16.24 75.309 15.408 76.845 14.8C78.381 14.192 80.429 13.888 82.989 13.888C84.077 13.888 85.229 13.952 86.445 14.08C87.661 14.176 88.829 14.336 89.949 14.56C91.101 14.752 92.093 14.992 92.925 15.28L92.157 20.128H81.405C80.733 20.128 80.237 20.24 79.917 20.464C79.597 20.656 79.373 21.008 79.245 21.52L79.149 21.952C79.117 22.112 79.085 22.272 79.053 22.432C79.053 22.56 79.053 22.672 79.053 22.768C79.053 23.12 79.165 23.392 79.389 23.584C79.613 23.744 80.061 23.824 80.733 23.824H84.813C86.925 23.824 88.621 24.288 89.901 25.216C91.181 26.144 91.821 27.408 91.821 29.008C91.821 29.36 91.805 29.728 91.773 30.112C91.773 30.496 91.741 30.896 91.677 31.312L91.341 33.568C90.957 36.032 89.757 37.776 87.741 38.8C85.757 39.792 83.149 40.288 79.917 40.288ZM104.765 40.288C101.277 40.288 98.6693 39.52 96.9413 37.984C95.2133 36.416 94.3493 34.16 94.3493 31.216C94.3493 30.256 94.3813 29.376 94.4453 28.576C94.5413 27.776 94.6373 27.008 94.7333 26.272C95.1493 23.68 95.7253 21.568 96.4613 19.936C97.1973 18.304 98.1253 17.056 99.2453 16.192C100.365 15.296 101.709 14.688 103.277 14.368C104.877 14.048 106.749 13.888 108.893 13.888C111.709 13.888 113.853 14.24 115.325 14.944C116.829 15.616 117.853 16.656 118.397 18.064C118.941 19.472 119.213 21.248 119.213 23.392C119.213 24.992 119.069 26.736 118.781 28.624C118.301 31.76 117.485 34.176 116.333 35.872C115.213 37.536 113.693 38.688 111.773 39.328C109.885 39.968 107.549 40.288 104.765 40.288ZM105.629 33.664C106.685 33.664 107.517 33.504 108.125 33.184C108.733 32.832 109.213 32.208 109.565 31.312C109.949 30.416 110.269 29.12 110.525 27.424C110.653 26.528 110.749 25.728 110.813 25.024C110.909 24.32 110.957 23.664 110.957 23.056C110.957 22.032 110.717 21.328 110.237 20.944C109.757 20.56 108.941 20.368 107.789 20.368C106.733 20.368 105.901 20.56 105.293 20.944C104.685 21.296 104.189 21.984 103.805 23.008C103.453 24.032 103.149 25.504 102.893 27.424C102.669 28.8 102.557 29.936 102.557 30.832C102.557 31.92 102.797 32.672 103.277 33.088C103.789 33.472 104.573 33.664 105.629 33.664ZM120.036 40L124.068 14.176H130.98L131.988 16.72C133.012 15.92 134.228 15.248 135.636 14.704C137.076 14.16 138.676 13.888 140.436 13.888C142.516 13.888 144.116 14.416 145.236 15.472C146.356 16.528 146.916 17.904 146.916 19.6C146.916 20.176 146.884 20.848 146.82 21.616C146.788 22.352 146.628 23.552 146.34 25.216L144.036 40H135.732L138.036 25.504C138.1 24.96 138.148 24.544 138.18 24.256C138.212 23.936 138.228 23.696 138.228 23.536C138.228 22.832 138.036 22.288 137.652 21.904C137.268 21.52 136.596 21.328 135.636 21.328C134.74 21.328 133.892 21.504 133.092 21.856C132.324 22.208 131.62 22.672 130.98 23.248L128.292 40H120.036ZM149.398 40L152.422 20.8H148.918L149.782 15.472L153.478 14.176L154.102 10.432C154.55 7.744 155.574 5.856 157.174 4.768C158.774 3.648 161.03 3.088 163.942 3.088C165.094 3.088 166.182 3.136 167.206 3.232C168.23 3.328 169.11 3.44 169.846 3.568L168.838 9.664H165.526C164.374 9.664 163.51 9.888 162.934 10.336C162.39 10.784 162.054 11.6 161.926 12.784L161.782 14.176H167.494L166.438 20.8H160.726L157.702 40H149.398ZM165.741 40L169.821 14.176H177.261L177.597 17.584C178.461 16.56 179.437 15.696 180.525 14.992C181.645 14.256 182.925 13.888 184.365 13.888C184.845 13.888 185.261 13.904 185.613 13.936C185.997 13.968 186.381 14.032 186.765 14.128L185.517 22.432C184.525 22.4 183.565 22.384 182.637 22.384C181.261 22.384 180.061 22.576 179.037 22.96C178.013 23.344 177.181 23.776 176.541 24.256L174.045 40H165.741ZM192.103 40.288C190.887 40.288 189.751 39.984 188.695 39.376C187.671 38.736 186.839 37.76 186.199 36.448C185.591 35.136 185.287 33.424 185.287 31.312C185.287 30.384 185.351 29.408 185.479 28.384C185.639 27.328 185.767 26.48 185.863 25.84C186.503 21.84 187.911 18.848 190.087 16.864C192.295 14.88 195.479 13.888 199.639 13.888C201.975 13.888 204.151 14.192 206.167 14.8C208.183 15.376 209.767 16.112 210.919 17.008L207.271 40H199.879L199.399 37.456C198.951 37.872 198.327 38.304 197.527 38.752C196.759 39.168 195.895 39.536 194.935 39.856C194.007 40.144 193.063 40.288 192.103 40.288ZM196.279 33.664C197.143 33.664 197.895 33.488 198.535 33.136C199.207 32.784 199.767 32.432 200.215 32.08L201.943 21.04C201.783 20.976 201.447 20.88 200.935 20.752C200.423 20.592 199.863 20.512 199.255 20.512C197.655 20.512 196.455 21.04 195.655 22.096C194.855 23.12 194.295 24.544 193.975 26.368C193.719 27.84 193.591 28.992 193.591 29.824C193.591 30.848 193.783 31.744 194.167 32.512C194.583 33.28 195.287 33.664 196.279 33.664ZM210.931 40L214.963 14.176H221.875L222.883 16.72C223.907 15.92 225.123 15.248 226.531 14.704C227.971 14.16 229.571 13.888 231.331 13.888C233.411 13.888 235.011 14.416 236.131 15.472C237.251 16.528 237.811 17.904 237.811 19.6C237.811 20.176 237.779 20.848 237.715 21.616C237.683 22.352 237.523 23.552 237.235 25.216L234.931 40H226.627L228.931 25.504C228.995 24.96 229.043 24.544 229.075 24.256C229.107 23.936 229.123 23.696 229.123 23.536C229.123 22.832 228.931 22.288 228.547 21.904C228.163 21.52 227.491 21.328 226.531 21.328C225.635 21.328 224.787 21.504 223.987 21.856C223.219 22.208 222.515 22.672 221.875 23.248L219.187 40H210.931ZM249.22 40.288C247.236 40.288 245.524 39.984 244.084 39.376C242.676 38.768 241.588 37.744 240.82 36.304C240.052 34.832 239.668 32.848 239.668 30.352C239.668 29.776 239.7 29.088 239.764 28.288C239.86 27.488 239.972 26.64 240.1 25.744C240.548 22.832 241.332 20.512 242.452 18.784C243.572 17.056 244.948 15.808 246.58 15.04C248.244 14.272 250.1 13.888 252.148 13.888C253.588 13.888 255.076 14.048 256.612 14.368C258.148 14.656 259.652 15.008 261.124 15.424L260.308 20.176H254.068C252.18 20.176 250.82 20.784 249.988 22C249.156 23.184 248.548 24.88 248.164 27.088C248.068 27.728 248.004 28.256 247.972 28.672C247.94 29.056 247.924 29.344 247.924 29.536C247.924 31.136 248.26 32.288 248.932 32.992C249.604 33.696 250.596 34.048 251.908 34.048H258.532L257.764 38.752C256.676 39.2 255.444 39.568 254.068 39.856C252.724 40.144 251.108 40.288 249.22 40.288ZM268.02 40.288C266.804 40.288 265.668 39.984 264.612 39.376C263.588 38.736 262.756 37.76 262.116 36.448C261.508 35.136 261.204 33.424 261.204 31.312C261.204 30.384 261.268 29.408 261.396 28.384C261.556 27.328 261.684 26.48 261.78 25.84C262.42 21.84 263.828 18.848 266.004 16.864C268.212 14.88 271.396 13.888 275.556 13.888C277.892 13.888 280.068 14.192 282.084 14.8C284.1 15.376 285.684 16.112 286.836 17.008L283.188 40H275.796L275.316 37.456C274.868 37.872 274.244 38.304 273.444 38.752C272.676 39.168 271.812 39.536 270.852 39.856C269.924 40.144 268.98 40.288 268.02 40.288ZM272.196 33.664C273.06 33.664 273.812 33.488 274.452 33.136C275.124 32.784 275.684 32.432 276.132 32.08L277.86 21.04C277.7 20.976 277.364 20.88 276.852 20.752C276.34 20.592 275.78 20.512 275.172 20.512C273.572 20.512 272.372 21.04 271.572 22.096C270.772 23.12 270.212 24.544 269.892 26.368C269.636 27.84 269.508 28.992 269.508 29.824C269.508 30.848 269.7 31.744 270.084 32.512C270.5 33.28 271.204 33.664 272.196 33.664ZM305.908 40.288C303.508 40.288 301.716 39.488 300.532 37.888C299.348 36.288 298.756 34.064 298.756 31.216C298.756 29.424 298.948 27.568 299.332 25.648C299.812 23.216 300.484 21.12 301.348 19.36C302.244 17.6 303.556 16.256 305.284 15.328C307.012 14.368 309.348 13.888 312.292 13.888C313.06 13.888 313.796 13.92 314.5 13.984C315.204 14.048 315.876 14.144 316.516 14.272L318.196 3.376H326.5L320.692 40H313.3L312.82 37.456C311.892 38.256 310.82 38.928 309.604 39.472C308.42 40.016 307.188 40.288 305.908 40.288ZM309.652 33.664C310.516 33.664 311.268 33.504 311.908 33.184C312.548 32.864 313.124 32.496 313.636 32.08L315.412 21.04C315.124 20.912 314.756 20.8 314.308 20.704C313.86 20.576 313.332 20.512 312.724 20.512C311.924 20.512 311.172 20.672 310.468 20.992C309.764 21.28 309.14 21.888 308.596 22.816C308.052 23.744 307.62 25.152 307.3 27.04C307.204 27.552 307.124 28.032 307.06 28.48C307.028 28.928 307.012 29.392 307.012 29.872C307.012 31.312 307.268 32.304 307.78 32.848C308.324 33.392 308.948 33.664 309.652 33.664ZM335.722 40.288C331.946 40.288 329.306 39.424 327.802 37.696C326.298 35.968 325.546 33.552 325.546 30.448C325.546 29.616 325.594 28.8 325.69 28C325.786 27.2 325.898 26.432 326.026 25.696C326.698 21.408 328.186 18.368 330.49 16.576C332.826 14.752 335.882 13.84 339.658 13.84C340.874 13.84 342.074 13.968 343.258 14.224C344.474 14.448 345.562 14.848 346.522 15.424C347.482 15.968 348.25 16.768 348.826 17.824C349.434 18.848 349.738 20.16 349.738 21.76C349.738 24.224 349.242 26.096 348.25 27.376C347.258 28.624 345.93 29.472 344.266 29.92C342.634 30.368 340.826 30.592 338.842 30.592C337.786 30.592 336.81 30.56 335.914 30.496C335.05 30.4 334.346 30.288 333.802 30.16C333.738 30.64 333.706 31.088 333.706 31.504C333.706 32.432 334.122 33.12 334.954 33.568C335.818 34.016 337.178 34.24 339.034 34.24H347.482L346.714 39.088C345.338 39.408 343.69 39.696 341.77 39.952C339.882 40.176 337.866 40.288 335.722 40.288ZM336.826 26.08C338.81 26.08 340.17 25.792 340.906 25.216C341.642 24.64 342.01 23.792 342.01 22.672C342.01 21.008 341.034 20.176 339.082 20.176C337.674 20.176 336.602 20.656 335.866 21.616C335.162 22.576 334.65 23.984 334.33 25.84C334.714 25.904 335.114 25.968 335.53 26.032C335.978 26.064 336.41 26.08 336.826 26.08ZM354.974 40L350.798 14.176H359.342L361.118 32.32L365.822 21.568C366.366 20.288 366.798 19.056 367.118 17.872C367.47 16.688 367.726 15.328 367.886 13.792H375.566C375.502 15.808 375.102 17.776 374.366 19.696C373.63 21.584 372.846 23.36 372.014 25.024L364.526 40H354.974Z" fill="white"/>
<path d="M288 40.096C287.392 40.096 287.088 39.808 287.088 39.232V39.04L287.904 33.76C288 33.024 288.432 32.656 289.2 32.656H294C294.64 32.656 294.96 32.912 294.96 33.424V33.76L294.096 39.04C294.032 39.456 293.872 39.744 293.616 39.904C293.392 40.032 293.12 40.096 292.8 40.096H288Z" fill="#C1476C"/>
</svg>
