<svg width="9" height="9" viewBox="0 0 9 9" fill="none" xmlns="http://www.w3.org/2000/svg">
<path d="M0 4.49999C0 3.87662 0.116599 3.29221 0.349899 2.74676C0.596099 2.2013 0.9201 1.72728 1.3218 1.32468C1.7365 0.90909 2.216 0.58442 2.7603 0.35065C3.3045 0.11688 3.8877 0 4.5097 0C5.1318 0 5.7149 0.11688 6.2592 0.35065C6.8035 0.58442 7.2765 0.90909 7.6782 1.32468C8.0929 1.72728 8.4169 2.2013 8.6501 2.74676C8.8834 3.29221 9 3.87662 9 4.49999C9 5.12337 8.8834 5.7078 8.6501 6.2533C8.4169 6.7987 8.0929 7.2792 7.6782 7.6948C7.2765 8.0974 6.8035 8.4156 6.2592 8.6494C5.7149 8.8831 5.1318 9 4.5097 9C3.8877 9 3.3045 8.8831 2.7603 8.6494C2.216 8.4156 1.7365 8.0974 1.3218 7.6948C0.9201 7.2792 0.596099 6.7987 0.349899 6.2533C0.116599 5.7078 0 5.12337 0 4.49999Z" fill="white"/>
<path d="M0 4.49999C0 3.87662 0.116599 3.29221 0.349899 2.74676C0.596099 2.2013 0.9201 1.72728 1.3218 1.32468C1.7365 0.90909 2.216 0.58442 2.7603 0.35065C3.3045 0.11688 3.8877 0 4.5097 0C5.1318 0 5.7149 0.11688 6.2592 0.35065C6.8035 0.58442 7.2765 0.90909 7.6782 1.32468C8.0929 1.72728 8.4169 2.2013 8.6501 2.74676C8.8834 3.29221 9 3.87662 9 4.49999C9 5.12337 8.8834 5.7078 8.6501 6.2533C8.4169 6.7987 8.0929 7.2792 7.6782 7.6948C7.2765 8.0974 6.8035 8.4156 6.2592 8.6494C5.7149 8.8831 5.1318 9 4.5097 9C3.8877 9 3.3045 8.8831 2.7603 8.6494C2.216 8.4156 1.7365 8.0974 1.3218 7.6948C0.9201 7.2792 0.596099 6.7987 0.349899 6.2533C0.116599 5.7078 0 5.12337 0 4.49999ZM4.8402 1.65585C5.1512 2.04546 5.3974 2.48052 5.5788 2.96104C5.7603 3.44156 5.851 3.95454 5.851 4.49999C5.851 5.03247 5.7603 5.54546 5.5788 6.039C5.3974 6.5195 5.1512 6.9546 4.8402 7.3442C5.1901 7.3052 5.5205 7.2078 5.8315 7.0519C6.1426 6.8831 6.4082 6.6753 6.6285 6.4286C6.8488 6.1688 7.0238 5.87662 7.1534 5.55195C7.2829 5.21428 7.3477 4.86363 7.3477 4.49999C7.3477 4.13637 7.2829 3.79221 7.1534 3.46753C7.0238 3.12987 6.8488 2.83766 6.6285 2.59092C6.4082 2.33117 6.1426 2.12338 5.8315 1.96754C5.5205 1.7987 5.1901 1.6948 4.8402 1.65585Z" fill="#C1476C"/>
</svg>
